PathFileType	4	(X/Y/Z)	/Users/niels/Desktop/University/Third Semester/Perception and Action/Exam/Gymnastics Motion Tracking/Code for Gym Tracking/Analyzed Data/Webcam_Backflip/id1_5_trajectory_Sports2D/id1_5_trajectory_Sports2D_px_person00.trc
DataRate	CameraRate	NumFrames	NumMarkers	Units	OrigDataRate	OrigDataStartFrame	OrigNumFrames
29.87551867219917	29.87551867219917	12	22	m	29.87551867219917	120	241
Frame#	Time	Hip			RHip			RKnee			RAnkle			RBigToe			RSmallToe			RHeel			LHip			LKnee			LAnkle			LBigToe			LSmallToe			LHeel			Neck			Head			Nose			RShoulder			RElbow			RWrist			LShoulder			LElbow			LWrist		
		X1	Y1	Z1	X2	Y2	Z2	X3	Y3	Z3	X4	Y4	Z4	X5	Y5	Z5	X6	Y6	Z6	X7	Y7	Z7	X8	Y8	Z8	X9	Y9	Z9	X10	Y10	Z10	X11	Y11	Z11	X12	Y12	Z12	X13	Y13	Z13	X14	Y14	Z14	X15	Y15	Z15	X16	Y16	Z16	X17	Y17	Z17	X18	Y18	Z18	X19	Y19	Z19	X20	Y20	Z20	X21	Y21	Z21	X22	Y22	Z22
120	4.016666666666667	0.915401559045282	-0.606322131524562	0.0	0.9000682363006961	-0.605738159529738	0.0	0.8718846707533903	-0.7120414861138366	0.0	0.7994220053362551	-0.7979073809651308	0.0	0.8247797348779996	-0.8404068200753827	0.0	0.8124195941160103	-0.8382430072628738	0.0	0.7863966314223831	-0.8071869742267048	0.0	0.932918267380161	-0.606141792820178	0.0	0.9418299829948034	-0.7114451435565811	0.0	0.9479215173384461	-0.8271432580995762	0.0	0.9988127134328606	-0.8418602619761439	0.0	0.9910891976319606	-0.8395792714024682	0.0	0.9399234833947775	-0.8428267632780849	0.0	0.9395898117143858	-0.44786532113649663	0.0	0.9863655571002439	-0.39082783325404125	0.0	0.9841582836026443	-0.4362281629310803	0.0	0.9075352754474717	-0.46147255969556855	0.0	0.8802210288395236	-0.5298205560961606	0.0	0.9232796844904222	-0.5869454061916972	0.0	0.9437983324755095	-0.46856600607156185	0.0	0.9356610798001287	-0.5129647223271884	0.0	0.9628909226034911	-0.5008800709510578	0.0
121	4.050138888888889	0.9157619958928219	-0.6022216540238174	0.0	0.9005257573583867	-0.6014655328728415	0.0	0.8734309767264588	-0.7083915811102821	0.0	0.8010412471483185	-0.793560606057917	0.0	0.8243436778188122	-0.8369503048823814	0.0	0.8121269766658162	-0.8347413972219795	0.0	0.7877880091509982	-0.8022646023808906	0.0	0.9331817201667144	-0.6019879314875867	0.0	0.9421926456066274	-0.7073627172841023	0.0	0.9479764917916664	-0.822801829291097	0.0	0.9988619878875008	-0.8379421290918133	0.0	0.9918210109965605	-0.8356793405484657	0.0	0.9396836827567137	-0.8386414841291845	0.0	0.9437520190413916	-0.4443268967073407	0.0	0.9925098787478849	-0.3886423586055433	0.0	0.9893240128275436	-0.43317315868307155	0.0	0.9106939418200605	-0.4562170843555538	0.0	0.8779484831491471	-0.5229405738257711	0.0	0.9176843442545999	-0.5849555005912783	0.0	0.9471774882197934	-0.4648705995806316	0.0	0.9426507737038609	-0.5039631371484822	0.0	0.9737421752570699	-0.4748280436669421	0.0
122	4.083611111111111	0.9157901723206946	-0.597494702143978	0.0	0.9007634418284928	-0.5964790432507692	0.0	0.8745656470806294	-0.7038801366450378	0.0	0.8022241444814165	-0.7888563677601825	0.0	0.8239088181004363	-0.8328351380246928	0.0	0.8120192997396163	-0.8306621769061755	0.0	0.7887415864434996	-0.7971162558497757	0.0	0.9328180620782255	-0.5972327209458733	0.0	0.9419776771202989	-0.7025487741949574	0.0	0.9478890394910019	-0.817888093630437	0.0	0.9988896982131449	-0.8332109694905236	0.0	0.9925179924351103	-0.8310970111362121	0.0	0.9394508490127833	-0.8336575462047527	0.0	0.9478614324825259	-0.44019181238257116	0.0	0.9992986726715635	-0.3863178462487936	0.0	0.9945803439744129	-0.43007865252158506	0.0	0.9139590891079618	-0.45022295755170794	0.0	0.8761447188386895	-0.514694303960369	0.0	0.9121792429969764	-0.5808825639454681	0.0	0.9499697651602685	-0.4607016164745653	0.0	0.9469476728723238	-0.4977188319860361	0.0	0.9833898516453569	-0.459284222015466	0.0
123	4.117083333333333	0.9156235368542643	-0.5926493474025332	0.0	0.9008680703304773	-0.5912991147506579	0.0	0.8752153997064945	-0.6989978339580304	0.0	0.8028069010343799	-0.7842188259196908	0.0	0.8233603481611614	-0.8284528899036696	0.0	0.811993758435475	-0.826378493459243	0.0	0.7891395578968899	-0.7922835940567386	0.0	0.9320776362045208	-0.5923717990393135	0.0	0.9413903943170692	-0.697560652089057	0.0	0.9476779394927203	-0.8129081088899113	0.0	0.9989811066278718	-0.8281649922034885	0.0	0.9931266498001188	-0.8263384089643376	0.0	0.9392265327149958	-0.8284406111409164	0.0	0.9517309688574489	-0.4359031771262039	0.0	1.0063320887945923	-0.38413046369963477	0.0	0.9996077844406559	-0.42721864264533477	0.0	0.9172599285499626	-0.44409371254506275	0.0	0.8750213748523153	-0.5060578864545684	0.0	0.9071973560311332	-0.5755810510238986	0.0	0.9522484749093477	-0.4563765504933193	0.0	0.948268109075513	-0.4949144266927505	0.0	0.990448176267509	-0.45559080182791006	0.0
124	4.150555555555556	0.9154698568736501	-0.5882476583892408	0.0	0.9009637680818632	-0.5865064314077902	0.0	0.8754601315867412	-0.6943185542056022	0.0	0.8027738358640365	-0.7800683737075419	0.0	0.8226954426014336	-0.8242925922524609	0.0	0.8119737706487595	-0.8223413784055437	0.0	0.7889905024037522	-0.7882098229165927	0.0	0.9313565093555758	-0.5879357532508315	0.0	0.9407803866209589	-0.6930129595859075	0.0	0.9474279078710748	-0.8084192111465668	0.0	0.9992061830938367	-0.8234022189086618	0.0	0.9936259626165402	-0.8219087122505561	0.0	0.9389916572621481	-0.8236215646012848	0.0	0.9552400480960141	-0.4319147370042978	0.0	1.0131681986874266	-0.38234849531146103	0.0	1.0041632430577596	-0.4248970542256432	0.0	0.9205386628937756	-0.4384543577614005	0.0	0.8746780290411315	-0.4980462137101284	0.0	0.903151459095171	-0.570028006552563	0.0	0.9542164217542459	-0.4522705526497534	0.0	0.9470679262654584	-0.49506776865547086	0.0	0.9943795136010316	-0.4616953415322825	0.0
125	4.184027777777778	0.9155560667803948	-0.584883334474396	0.0	0.901217307668768	-0.5827136010624667	0.0	0.8754845919417521	-0.6904033481621265	0.0	0.8023048263391246	-0.7767933494006835	0.0	0.8220537197565753	-0.8208776301861823	0.0	0.8119744834371436	-0.819041863839945	0.0	0.7884628932643597	-0.7851880911697369	0.0	0.9310425300948852	-0.584460510045804	0.0	0.9404979862473549	-0.689446007573186	0.0	0.9472536470515175	-0.8049460913312706	0.0	0.9995696992821461	-0.8195497682890515	0.0	0.9939995616622128	-0.8183145704555216	0.0	0.9387502813524483	-0.8198145134765689	0.0	0.9583502473421832	-0.42867213339142796	0.0	1.0193184379184	-0.381179950275167	0.0	1.008095438742677	-0.4233738076103258	0.0	0.923750085654821	-0.4339053519801901	0.0	0.8751341516728218	-0.4915442434594143	0.0	0.9003476177201845	-0.5652131925434225	0.0	0.9560513101271534	-0.44887772065719533	0.0	0.944101416140675	-0.4972369352885201	0.0	0.995208859118852	-0.474514306136888	0.0
126	4.2175	0.9160724871537408	-0.5830519400956632	0.0	0.9018041514778331	-0.580439939931568	0.0	0.8755203395244417	-0.6876921307594037	0.0	0.801673552749908	-0.7746869137561148	0.0	0.8216024579979205	-0.8186384367855067	0.0	0.8120326941955163	-0.8168916890986331	0.0	0.7878009196899026	-0.7833772710638853	0.0	0.9313947773593807	-0.5823943557669417	0.0	0.9408023859110987	-0.6872097087010258	0.0	0.9472377028430459	-0.8028703458031367	0.0	0.9999946238699927	-0.8171320455794421	0.0	0.9942145941715234	-0.8160255682484687	0.0	0.9385310025349409	-0.8174958455914659	0.0	0.9610528742713431	-0.42653712453362064	0.0	1.0243128006921183	-0.3807181741537212	0.0	1.0113160313892877	-0.4227712231988401	0.0	0.9268216463208164	-0.43092625923259636	0.0	0.8763384610803038	-0.48719499417744655	0.0	0.898939628845705	-0.5619724431538407	0.0	0.9577748119392459	-0.44667482163395744	0.0	0.9402283802438878	-0.5005585100276566	0.0	0.9932772024887159	-0.4911619139399487	0.0
127	4.250972222222222	0.9171487554421585	-0.58298353403051	0.0	0.9028643760612644	-0.5799552848963896	0.0	0.8757885505997928	-0.6864536825538942	0.0	0.8010993397117308	-0.7739002038119512	0.0	0.8214166547577028	-0.8178144629624404	0.0	0.8121183732333122	-0.8160951446270599	0.0	0.7871972562447099	-0.7828195454890488	0.0	0.9325239515844975	-0.5819801015049862	0.0	0.941818527779741	-0.6864623343055465	0.0	0.9473926584511281	-0.8023941174625704	0.0	1.0003769080800802	-0.8164530693104136	0.0	0.9942487750357386	-0.8153551470459057	0.0	0.9383705589049722	-0.8169207183556747	0.0	0.9633145618786124	-0.42571336066121057	0.0	1.0278156449806124	-0.38094802031077074	0.0	1.013782430024694	-0.42306471909009147	0.0	0.9296193494421945	-0.4298016110052945	0.0	0.8781748614346392	-0.48537983393623324	0.0	0.8989417905938144	-0.5608532616278696	0.0	0.959281269521635	-0.44593701251176054	0.0	0.9363571128138936	-0.5044716986375521	0.0	0.989155739782735	-0.5093830891130543	0.0
128	4.2844444444444445	0.9188199252218084	-0.584596579383256	0.0	0.9044732626090172	-0.5812205783395029	0.0	0.8764435279398238	-0.6868019630450046	0.0	0.800670544647369	-0.7744320714596421	0.0	0.8214647027902988	-0.8184306194035378	0.0	0.8121701832882198	-0.816626255890997	0.0	0.7867293019511991	-0.783460591009599	0.0	0.9344087061846561	-0.5832115088833262	0.0	0.9435191410496646	-0.6872526034393758	0.0	0.9476817445493809	-0.8035728040776802	0.0	1.0006462242036178	-0.8175610235365812	0.0	0.9941323212503638	-0.8163767790026846	0.0	0.9383205577328596	-0.8181123844200382	0.0	0.9650875754388241	-0.42623767148475883	0.0	1.0297180680611926	-0.38179587090243533	0.0	1.0155261284168917	-0.4241302713187114	0.0	0.9319905538527791	-0.43061237219640164	0.0	0.8804955658147862	-0.48623169435025554	0.0	0.9002708335412716	-0.562106315507561	0.0	0.9604772577001545	-0.44667651609154496	0.0	0.9332950446274393	-0.5087018169558656	0.0	0.9835457599528733	-0.5276239752218329	0.0
129	4.317916666666667	0.9210138410049663	-0.5876026116873492	0.0	0.9066176200971102	-0.5839739806306568	0.0	0.8775465811707464	-0.6887453725921062	0.0	0.8003578930950718	-0.7761331360964098	0.0	0.8216618933787578	-0.8203113656439659	0.0	0.8121685836065552	-0.8182934142034977	0.0	0.7863681907156954	-0.7851670913643499	0.0	0.9369142583491343	-0.5859037592741382	0.0	0.9457369965243325	-0.6895516673235985	0.0	0.9480561949979831	-0.8063182716683713	0.0	1.0007452679696385	-0.8202728585479154	0.0	0.9939173944880034	-0.8189323153238988	0.0	0.9384453804842702	-0.820883320465249	0.0	0.966367028643058	-0.428017024751253	0.0	1.0301617264778073	-0.38318767622074995	0.0	1.016671664875472	-0.42581441275805	0.0	0.9338553503858879	-0.4332579204082143	0.0	0.8831614663976547	-0.4896386475609223	0.0	0.9027837567020051	-0.5657088648646719	0.0	0.9613879850793079	-0.44871407131630087	0.0	0.9315237626323359	-0.5131360537081912	0.0	0.9770738069826401	-0.5449294393624211	0.0
130	4.351388888888889	0.9236099593400172	-0.5916689507665357	0.0	0.9092084698195184	-0.5878888566150099	0.0	0.8791236471100203	-0.6922140881840354	0.0	0.8000990521157032	-0.7786977925181036	0.0	0.8219158639956148	-0.8231023725984082	0.0	0.8121233900121163	-0.8207772330939129	0.0	0.7860309078880205	-0.7876608658254087	0.0	0.93984595825678	-0.5898128516912982	0.0	0.9482039602538986	-0.6932187264258388	0.0	0.9484671749537082	-0.8103503428287157	0.0	1.0005623574063875	-0.8242111900374336	0.0	0.9935797518228754	-0.822681802767525	0.0	0.9387816775990528	-0.8248578580068322	0.0	0.9672174956525506	-0.43087203869793267	0.0	1.029485137747588	-0.3850672870990035	0.0	1.0173858959099056	-0.42800126120401993	0.0	0.935257781555075	-0.43746284744191277	0.0	0.8860646619676319	-0.49524994609140377	0.0	0.9062748490068961	-0.5713375330441718	0.0	0.9621559752214282	-0.45180800984607816	0.0	0.9310697799237355	-0.5177172245485004	0.0	0.9701856942357403	-0.560709917814371	0.0
131	4.384861111111111	0.9265004119906312	-0.5965318782968968	0.0	0.9121418489803271	-0.5926785489303581	0.0	0.8812854116550115	-0.697040231138276	0.0	0.7999131770265182	-0.781683247384222	0.0	0.8221760869082262	-0.8263198701981859	0.0	0.8120691144300539	-0.8236502304210227	0.0	0.7856737012036851	-0.7904497891441897	0.0	0.9430070655172247	-0.5947067572054033	0.0	0.9506065395037255	-0.6980013783348783	0.0	0.9488729129297303	-0.8151953324681699	0.0	0.9999145089250497	-0.828861489261107	0.0	0.9929575798471209	-0.8271716074907968	0.0	0.9393016582102158	-0.8295191016928759	0.0	0.9677580318444772	-0.43456613891663187	0.0	1.0281061076631786	-0.3873485728833179	0.0	1.0178112328117521	-0.4306006545249283	0.0	0.9363235421317895	-0.44279131412665745	0.0	0.8891136420332209	-0.5025022334142265	0.0	0.9104294899299173	-0.5783788907271575	0.0	0.9629679072543709	-0.4557285413472867	0.0	0.9315976787754497	-0.5223867137270577	0.0	0.9632903305095085	-0.5745300968902141	0.0
